<svg width="59" height="60" viewBox="0 0 59 60" fill="none" xmlns="http://www.w3.org/2000/svg">
<path d="M29.4997 18C32.7164 18 35.8013 19.2643 38.0758 21.5147C40.3503 23.7652 41.6281 26.8174 41.6281 30C41.6281 33.1826 40.3503 36.2348 38.0758 38.4853C35.8013 40.7357 32.7164 42 29.4997 42C26.2831 42 23.1982 40.7357 20.9236 38.4853C18.6491 36.2348 17.3713 33.1826 17.3713 30C17.3713 26.8174 18.6491 23.7652 20.9236 21.5147C23.1982 19.2643 26.2831 18 29.4997 18ZM29.4997 24C27.8914 24 26.3489 24.6321 25.2117 25.7574C24.0744 26.8826 23.4355 28.4087 23.4355 30C23.4355 31.5913 24.0744 33.1174 25.2117 34.2426C26.3489 35.3679 27.8914 36 29.4997 36C31.108 36 32.6505 35.3679 33.7877 34.2426C34.925 33.1174 35.5639 31.5913 35.5639 30C35.5639 28.4087 34.925 26.8826 33.7877 25.7574C32.6505 24.6321 31.108 24 29.4997 24ZM23.4355 60C22.6775 60 22.0407 59.46 21.9195 58.74L20.7976 50.79C18.8874 50.04 17.25 49.02 15.6733 47.82L8.12342 50.85C7.45636 51.09 6.63769 50.85 6.27384 50.19L0.209641 39.81C0.0240632 39.5009 -0.0413597 39.1355 0.0256066 38.7821C0.092573 38.4287 0.287343 38.1116 0.573493 37.89L6.97122 32.91L6.75897 30L6.97122 27L0.573493 22.11C0.287343 21.8884 0.092573 21.5713 0.0256066 21.2179C-0.0413597 20.8645 0.0240632 20.4991 0.209641 20.19L6.27384 9.81C6.63769 9.15 7.45636 8.88 8.12342 9.15L15.6733 12.15C17.25 10.98 18.8874 9.96 20.7976 9.21L21.9195 1.26C22.0407 0.54 22.6775 0 23.4355 0H35.5639C36.3219 0 36.9587 0.54 37.08 1.26L38.2018 9.21C40.112 9.96 41.7494 10.98 43.3261 12.15L50.876 9.15C51.5431 8.88 52.3617 9.15 52.7256 9.81L58.7898 20.19C59.1839 20.85 59.002 21.66 58.4259 22.11L52.0282 27L52.2404 30L52.0282 33L58.4259 37.89C59.002 38.34 59.1839 39.15 58.7898 39.81L52.7256 50.19C52.3617 50.85 51.5431 51.12 50.876 50.85L43.3261 47.85C41.7494 49.02 40.112 50.04 38.2018 50.79L37.08 58.74C36.9587 59.46 36.3219 60 35.5639 60H23.4355ZM27.2256 6L26.1038 13.83C22.4652 14.58 19.2512 16.5 16.9165 19.17L9.60915 16.05L7.33507 19.95L13.7328 24.6C12.52 28.1 12.52 31.9 13.7328 35.4L7.30475 40.08L9.57882 43.98L16.9468 40.86C19.2815 43.5 22.4652 45.42 26.0734 46.14L27.1953 54H31.8041L32.926 46.17C36.5342 45.42 39.7179 43.5 42.0526 40.86L49.4206 43.98L51.6947 40.08L45.2666 35.43C46.4795 31.92 46.4795 28.11 45.2666 24.6L51.6643 19.95L49.3903 16.05L42.0829 19.17C39.7004 16.441 36.4685 14.573 32.8957 13.86L31.7738 6H27.2256Z" fill="white"/>
</svg>
