<svg width="20" height="20" viewBox="0 0 20 20" fill="none" xmlns="http://www.w3.org/2000/svg">
<path d="M10.8358 6.46163C10.8358 6.29587 10.9017 6.1369 11.0189 6.01969C11.1361 5.90248 11.2951 5.83663 11.4608 5.83663H15.8208C15.9444 5.83674 16.0651 5.87345 16.1678 5.94214C16.2705 6.01082 16.3505 6.10839 16.3978 6.22253C16.445 6.33666 16.4574 6.46224 16.4333 6.58341C16.4092 6.70458 16.3498 6.81589 16.2625 6.9033L13.9492 9.21746C14.4075 9.2983 14.83 9.4283 15.1925 9.61996C15.9467 10.0175 16.4458 10.69 16.4458 11.635C16.4458 12.44 16.0533 13.0933 15.4692 13.5266C14.8967 13.9525 14.1467 14.1683 13.3683 14.1683C12.2292 14.1683 11.4733 13.7283 11.1458 13.5383C11.0025 13.4549 10.8982 13.3179 10.8559 13.1576C10.8135 12.9972 10.8366 12.8266 10.92 12.6833C11.0034 12.54 11.1404 12.4357 11.3007 12.3933C11.4611 12.351 11.6317 12.374 11.775 12.4575C12.0508 12.6183 12.5692 12.9183 13.3683 12.9183C13.9292 12.9183 14.4042 12.7616 14.7242 12.5241C15.0325 12.295 15.1958 11.995 15.1958 11.635C15.1958 11.2183 15.0133 10.9383 14.61 10.7258C14.1617 10.4891 13.4642 10.3566 12.5508 10.3566C12.4273 10.3565 12.3066 10.3198 12.2039 10.2511C12.1012 10.1824 12.0212 10.0849 11.9739 9.97073C11.9267 9.8566 11.9143 9.73102 11.9384 9.60985C11.9624 9.48868 12.0219 9.37737 12.1092 9.28996L14.3117 7.08663H11.4608C11.2951 7.08663 11.1361 7.02078 11.0189 6.90357C10.9017 6.78636 10.8358 6.62739 10.8358 6.46163ZM6.56668 12.6791C6.31821 12.65 6.06696 12.7015 5.84999 12.826C5.63302 12.9506 5.46183 13.1415 5.36168 13.3708C5.29205 13.5187 5.16724 13.6334 5.01401 13.6904C4.86078 13.7474 4.69133 13.742 4.54198 13.6756C4.39264 13.6091 4.27529 13.4867 4.21511 13.3347C4.15492 13.1827 4.15668 13.0132 4.22001 12.8625C4.42822 12.3903 4.78212 11.9973 5.22989 11.7409C5.67766 11.4844 6.19578 11.3781 6.70835 11.4375C7.19918 11.4875 7.65751 11.7066 8.00585 12.0566C8.36751 12.4283 8.57668 12.9383 8.57668 13.5383C8.57668 14.9058 7.53168 15.5691 6.81001 16.0266C6.36168 16.3108 5.82668 16.605 5.56418 17.0875H8.12501C8.29077 17.0875 8.44974 17.1533 8.56695 17.2705C8.68416 17.3877 8.75001 17.5467 8.75001 17.7125C8.75001 17.8782 8.68416 18.0372 8.56695 18.1544C8.44974 18.2716 8.29077 18.3375 8.12501 18.3375H4.79168C4.62592 18.3375 4.46695 18.2716 4.34974 18.1544C4.23253 18.0372 4.16668 17.8782 4.16668 17.7125C4.16668 16.2133 5.28085 15.5208 6.03585 15.0375C6.89585 14.4883 7.32751 14.1783 7.32751 13.5375C7.32751 13.2416 7.23085 13.0508 7.11085 12.9275C6.96364 12.7847 6.77094 12.697 6.56668 12.6791ZM6.76168 1.74496C6.8592 1.79909 6.94045 1.87833 6.99701 1.97446C7.05358 2.07059 7.08338 2.1801 7.08335 2.29163V7.49996H8.12668C8.29244 7.49996 8.45141 7.56581 8.56862 7.68302C8.68583 7.80023 8.75168 7.9592 8.75168 8.12496C8.75168 8.29072 8.68583 8.44969 8.56862 8.5669C8.45141 8.68411 8.29244 8.74996 8.12668 8.74996H4.79168C4.62592 8.74996 4.46695 8.68411 4.34974 8.5669C4.23253 8.44969 4.16668 8.29072 4.16668 8.12496C4.16668 7.9592 4.23253 7.80023 4.34974 7.68302C4.46695 7.56581 4.62592 7.49996 4.79168 7.49996H5.83335V3.41913L5.12251 3.8633C4.98195 3.95115 4.81224 3.97956 4.65073 3.94229C4.48921 3.90502 4.34912 3.80511 4.26126 3.66455C4.17341 3.52398 4.14499 3.35427 4.18227 3.19276C4.21954 3.03124 4.31945 2.89115 4.46001 2.8033L6.12668 1.76163C6.22134 1.70227 6.3302 1.66941 6.4419 1.66647C6.5536 1.66354 6.66403 1.69065 6.76168 1.74496Z" fill="black"/>
</svg>
