<svg width="20" height="20" viewBox="0 0 20 20" fill="none" xmlns="http://www.w3.org/2000/svg">
<g clip-path="url(#clip0_0_19)">
<path d="M10 1.66669C11.2936 1.66664 12.537 2.16799 13.4687 3.06541C14.4005 3.96282 14.9482 5.18645 14.9967 6.47919L15 6.66669H15.8333C16.2538 6.66655 16.6588 6.82536 16.9671 7.11127C17.2754 7.39718 17.4643 7.78906 17.4958 8.20835L17.5 8.33335V16.6667C17.5001 17.0872 17.3413 17.4922 17.0554 17.8005C16.7695 18.1088 16.3776 18.2977 15.9583 18.3292L15.8333 18.3334H4.16667C3.74619 18.3335 3.34119 18.1747 3.03288 17.8888C2.72456 17.6029 2.5357 17.211 2.50417 16.7917L2.5 16.6667V8.33335C2.49987 7.91287 2.65867 7.50788 2.94458 7.19956C3.23049 6.89125 3.62237 6.70239 4.04167 6.67085L4.16667 6.66669H5C5 5.3406 5.52678 4.06884 6.46447 3.13115C7.40215 2.19347 8.67392 1.66669 10 1.66669ZM15.8333 8.33335H4.16667V16.6667H15.8333V8.33335ZM10 10C10.3555 10.0001 10.7016 10.1139 10.9879 10.3247C11.2741 10.5355 11.4854 10.8324 11.591 11.1718C11.6965 11.5113 11.6908 11.8756 11.5746 12.2116C11.4583 12.5475 11.2377 12.8375 10.945 13.0392L10.8333 13.11V14.1667C10.8331 14.3791 10.7518 14.5834 10.606 14.7378C10.4602 14.8923 10.2609 14.9852 10.0488 14.9977C9.8368 15.0101 9.62802 14.9411 9.46514 14.8048C9.30226 14.6685 9.19759 14.4751 9.1725 14.2642L9.16667 14.1667V13.11C8.84895 12.9266 8.60065 12.6434 8.46026 12.3045C8.31987 11.9655 8.29524 11.5897 8.3902 11.2353C8.48515 10.8809 8.69439 10.5678 8.98544 10.3445C9.2765 10.1211 9.63312 10 10 10ZM10 3.33335C9.11594 3.33335 8.2681 3.68454 7.64298 4.30966C7.01786 4.93479 6.66667 5.78263 6.66667 6.66669H13.3333C13.3333 5.78263 12.9821 4.93479 12.357 4.30966C11.7319 3.68454 10.8841 3.33335 10 3.33335Z" fill="black"/>
</g>
<defs>
<clipPath id="clip0_0_19">
<rect width="20" height="20" fill="white"/>
</clipPath>
</defs>
</svg>
