<svg width="20" height="20" viewBox="0 0 20 20" fill="none" xmlns="http://www.w3.org/2000/svg">
<path d="M1.66675 18.3333C1.66675 16.5652 2.36913 14.8695 3.61937 13.6193C4.86961 12.369 6.5653 11.6666 8.33341 11.6666C10.1015 11.6666 11.7972 12.369 13.0475 13.6193C14.2977 14.8695 15.0001 16.5652 15.0001 18.3333H13.3334C13.3334 17.0072 12.8066 15.7355 11.8689 14.7978C10.9313 13.8601 9.6595 13.3333 8.33341 13.3333C7.00733 13.3333 5.73556 13.8601 4.79788 14.7978C3.8602 15.7355 3.33341 17.0072 3.33341 18.3333H1.66675ZM8.33341 10.8333C5.57091 10.8333 3.33341 8.59581 3.33341 5.83331C3.33341 3.07081 5.57091 0.833313 8.33341 0.833313C11.0959 0.833313 13.3334 3.07081 13.3334 5.83331C13.3334 8.59581 11.0959 10.8333 8.33341 10.8333ZM8.33341 9.16665C10.1751 9.16665 11.6667 7.67498 11.6667 5.83331C11.6667 3.99165 10.1751 2.49998 8.33341 2.49998C6.49175 2.49998 5.00008 3.99165 5.00008 5.83331C5.00008 7.67498 6.49175 9.16665 8.33341 9.16665ZM15.2367 12.2525C16.4079 12.7799 17.4017 13.6343 18.0989 14.7131C18.7961 15.7918 19.1669 17.0489 19.1667 18.3333H17.5001C17.5003 17.37 17.2222 16.4271 16.6993 15.618C16.1764 14.8089 15.431 14.168 14.5526 13.7725L15.2367 12.2525ZM14.6634 2.84415C15.503 3.19023 16.2209 3.77793 16.7259 4.53267C17.231 5.28742 17.5004 6.17518 17.5001 7.08331C17.5004 8.22692 17.0732 9.32934 16.3022 10.174C15.5312 11.0187 14.4723 11.5445 13.3334 11.6483V9.97081C13.9509 9.88238 14.5237 9.59833 14.9678 9.16036C15.412 8.72239 15.704 8.15358 15.801 7.53742C15.8981 6.92127 15.7951 6.29023 15.5071 5.73694C15.2191 5.18365 14.7613 4.73727 14.2009 4.46331L14.6634 2.84415Z" fill="#44A0FC"/>
</svg>
