<svg width="30" height="30" viewBox="0 0 30 30" fill="none" xmlns="http://www.w3.org/2000/svg">
<g clip-path="url(#clip0_1053_4440)">
<path fill-rule="evenodd" clip-rule="evenodd" d="M12.0733 3L11.93 3.72833L11.3817 6.39167C10.5207 6.72631 9.71495 7.18872 8.99167 7.76333L6.31167 6.86667L5.59167 6.645L5.21833 7.28667L3.37333 10.3717L3 11.0167L3.54667 11.495L5.62 13.2583C5.545 13.72 5.44833 14.175 5.44833 14.66C5.44833 15.145 5.545 15.6017 5.62 16.0633L3.54667 17.825L3 18.3033L3.37333 18.9467L5.21833 22.03L5.59167 22.675L6.31167 22.45L8.99167 21.555C9.71 22.1183 10.505 22.5917 11.3817 22.9267L11.93 25.59L12.0733 26.3183L17.2583 26.3183L17.4033 25.59L17.95 22.9267C18.811 22.5919 19.6167 22.1295 20.34 21.555L23.02 22.45L23.74 22.675L24.115 22.0317L25.9583 18.9467L26.3333 18.3033L25.785 17.825L23.7117 16.0617C23.7883 15.6 23.8833 15.145 23.8833 14.6583C23.8833 14.175 23.7883 13.7183 23.7117 13.2567L25.785 11.4933L26.3333 11.015L25.9583 10.3717L24.115 7.28833L23.74 6.645L23.02 6.86833L20.34 7.76333C19.6167 7.18872 18.811 6.72631 17.95 6.39167L17.4033 3.72833L17.2583 3L12.0733 3Z" stroke="black" stroke-linecap="square" stroke-linejoin="round"/>
<path fill-rule="evenodd" clip-rule="evenodd" d="M18 14.6583C18 15.5424 17.6489 16.3902 17.0237 17.0154C16.3986 17.6405 15.5508 17.9917 14.6667 17.9917C13.7827 17.9917 12.9348 17.6405 12.3097 17.0154C11.6846 16.3902 11.3334 15.5424 11.3334 14.6583C11.3334 13.7743 11.6846 12.9264 12.3097 12.3013C12.9348 11.6762 13.7827 11.325 14.6667 11.325C15.5508 11.325 16.3986 11.6762 17.0237 12.3013C17.6489 12.9264 18 13.7743 18 14.6583Z" stroke="black" stroke-linecap="square" stroke-linejoin="round"/>
</g>
<defs>
<clipPath id="clip0_1053_4440">
<rect width="25" height="25" fill="white" transform="translate(2 2)"/>
</clipPath>
</defs>
</svg>
