<svg width="85" height="68" viewBox="0 0 85 68" fill="none" xmlns="http://www.w3.org/2000/svg">
<path d="M0.14273 30.6784C-0.710107 40.857 2.27482 49.3392 8.6711 56.9732C15.0674 64.6071 23.5957 68 33.8298 68H76.4716C78.6037 68 80.7358 67.1518 82.4415 65.4553C84.1472 63.7589 85 61.6384 85 59.5178V56.125C85 53.5803 84.5736 50.6115 84.1472 46.7945H49.1808C44.9167 46.7945 41.5053 45.0981 38.5204 42.1293C35.5355 39.1606 33.8298 35.3436 33.8298 31.5266C33.8298 24.7409 36.8147 20.0757 43.211 17.531L63.6791 8.62474C56.43 3.53543 47.9016 0.566664 38.094 0.142555C28.7128 -0.705663 20.1844 2.2631 12.5089 8.20063C4.83333 14.1382 0.995567 21.348 0.14273 30.6784ZM42.3582 31.5266C42.3582 33.2231 43.211 34.9195 44.4902 36.1918C45.7695 37.4641 47.4752 38.3124 49.1808 38.3124H82.4415C79.883 28.982 76.0452 21.348 70.5018 15.4105L46.6223 25.165C43.6374 26.0132 42.3582 28.1337 42.3582 31.5266Z" fill="#FFFBFE"/>
</svg>
